HIERARCHY
ROOT mixamorig:Hips
{
	OFFSET 0.000000 104.274902 0.000000
	CHANNELS 6 Xposition Yposition Zposition Xrotation Yrotation Zrotation
	JOINT mixamorig:Spine
	{
		OFFSET 0.000000 10.181549 0.131524
		CHANNELS 6 Xposition Yposition Zposition Xrotation Yrotation Zrotation
		JOINT mixamorig:Spine1
		{
			OFFSET 0.000000 9.893990 -1.470706
			CHANNELS 3 Xrotation Yrotation Zrotation
			JOINT mixamorig:Spine2
			{
				OFFSET 0.000000 9.220787 -1.370637
				CHANNELS 3 Xrotation Yrotation Zrotation
				JOINT mixamorig:Neck
				{
					OFFSET 0.000000 16.740372 -2.049022
					CHANNELS 6 Xposition Yposition Zposition Xrotation Yrotation Zrotation
					JOINT mixamorig:Head
					{
						OFFSET 0.000000 9.617859 1.684976
						CHANNELS 6 Xposition Yposition Zposition Xrotation Yrotation Zrotation
						JOINT mixamorig:HeadTop_End
						{
							OFFSET 0.000000 22.037384 7.501072
							CHANNELS 6 Xposition Yposition Zposition Xrotation Yrotation Zrotation
							End Site
							{
								OFFSET 0.000000 23.106567 -2.828246
							}
						}
					}
				}
				JOINT mixamorig:RightShoulder
				{
					OFFSET -4.570000 11.014877 -2.160840
					CHANNELS 6 Xposition Yposition Zposition Xrotation Yrotation Zrotation
					JOINT mixamorig:RightArm
					{
						OFFSET -10.592867 -0.524796 -2.232105
						CHANNELS 3 Xrotation Yrotation Zrotation
						JOINT mixamorig:RightForeArm
						{
							OFFSET -27.841497 0.000000 -0.000002
							CHANNELS 3 Xrotation Yrotation Zrotation
							JOINT mixamorig:RightHand
							{
								OFFSET -28.328812 0.000000 -0.000001
								CHANNELS 3 Xrotation Yrotation Zrotation
								JOINT mixamorig:RightHandThumb1
								{
									OFFSET -2.464798 -1.573990 2.681911
									CHANNELS 6 Xposition Yposition Zposition Xrotation Yrotation Zrotation
									JOINT mixamorig:RightHandThumb2
									{
										OFFSET -3.244781 -1.873383 1.873376
										CHANNELS 3 Xrotation Yrotation Zrotation
										JOINT mixamorig:RightHandThumb3
										{
											OFFSET -2.646263 -1.527817 1.527818
											CHANNELS 6 Xposition Yposition Zposition Xrotation Yrotation Zrotation
											JOINT mixamorig:RightHandThumb4
											{
												OFFSET -1.994591 -1.151581 1.151575
												CHANNELS 6 Xposition Yposition Zposition Xrotation Yrotation Zrotation
												End Site
												{
													OFFSET -1.860176 -1.142715 1.365483
												}
											}
										}
									}
								}
								JOINT mixamorig:RightHandIndex1
								{
									OFFSET -9.108299 -0.517883 2.259803
									CHANNELS 6 Xposition Yposition Zposition Xrotation Yrotation Zrotation
									JOINT mixamorig:RightHandIndex2
									{
										OFFSET -3.699997 0.000000 0.000000
										CHANNELS 3 Xrotation Yrotation Zrotation
										JOINT mixamorig:RightHandIndex3
										{
											OFFSET -2.850006 0.000000 0.000000
											CHANNELS 3 Xrotation Yrotation Zrotation
											JOINT mixamorig:RightHandIndex4
											{
												OFFSET -2.772194 0.000000 0.000000
												CHANNELS 3 Xrotation Yrotation Zrotation
												End Site
												{
													OFFSET -2.772202 0.000000 -0.000484
												}
											}
										}
									}
								}
								JOINT mixamorig:RightHandMiddle1
								{
									OFFSET -9.532501 0.000000 -0.000000
									CHANNELS 6 Xposition Yposition Zposition Xrotation Yrotation Zrotation
									JOINT mixamorig:RightHandMiddle2
									{
										OFFSET -3.699997 0.000000 0.000000
										CHANNELS 3 Xrotation Yrotation Zrotation
										JOINT mixamorig:RightHandMiddle3
										{
											OFFSET -2.949997 0.000000 0.000000
											CHANNELS 3 Xrotation Yrotation Zrotation
											JOINT mixamorig:RightHandMiddle4
											{
												OFFSET -2.946594 0.000000 0.000000
												CHANNELS 3 Xrotation Yrotation Zrotation
												End Site
												{
													OFFSET -2.946602 0.000000 -0.000982
												}
											}
										}
									}
								}
								JOINT mixamorig:RightHandRing1
								{
									OFFSET -9.103600 -0.043106 -1.865100
									CHANNELS 6 Xposition Yposition Zposition Xrotation Yrotation Zrotation
									JOINT mixamorig:RightHandRing2
									{
										OFFSET -3.379303 0.000000 0.000000
										CHANNELS 3 Xrotation Yrotation Zrotation
										JOINT mixamorig:RightHandRing3
										{
											OFFSET -2.889694 0.000000 0.000000
											CHANNELS 3 Xrotation Yrotation Zrotation
											JOINT mixamorig:RightHandRing4
											{
												OFFSET -2.638802 0.000000 0.000000
												CHANNELS 3 Xrotation Yrotation Zrotation
												End Site
												{
													OFFSET -2.638802 0.000000 0.004218
												}
											}
										}
									}
								}
								JOINT mixamorig:RightHandPinky1
								{
									OFFSET -8.076698 -0.486725 -3.806299
									CHANNELS 6 Xposition Yposition Zposition Xrotation Yrotation Zrotation
									JOINT mixamorig:RightHandPinky2
									{
										OFFSET -3.600006 0.000000 0.000000
										CHANNELS 3 Xrotation Yrotation Zrotation
										JOINT mixamorig:RightHandPinky3
										{
											OFFSET -2.099998 0.000000 0.000000
											CHANNELS 3 Xrotation Yrotation Zrotation
											JOINT mixamorig:RightHandPinky4
											{
												OFFSET -2.115791 0.000000 0.000000
												CHANNELS 3 Xrotation Yrotation Zrotation
												End Site
												{
													OFFSET -2.115799 0.000000 0.000174
												}
											}
										}
									}
								}
							}
						}
					}
				}
				JOINT mixamorig:LeftShoulder
				{
					OFFSET 4.570400 11.014679 -2.160816
					CHANNELS 6 Xposition Yposition Zposition Xrotation Yrotation Zrotation
					JOINT mixamorig:LeftArm
					{
						OFFSET 10.592373 -0.524597 -2.232116
						CHANNELS 3 Xrotation Yrotation Zrotation
						JOINT mixamorig:LeftForeArm
						{
							OFFSET 27.841488 0.000000 0.000001
							CHANNELS 3 Xrotation Yrotation Zrotation
							JOINT mixamorig:LeftHand
							{
								OFFSET 28.328808 0.000000 -0.000000
								CHANNELS 3 Xrotation Yrotation Zrotation
								JOINT mixamorig:LeftHandThumb1
								{
									OFFSET 2.466103 -1.576202 2.681698
									CHANNELS 6 Xposition Yposition Zposition Xrotation Yrotation Zrotation
									JOINT mixamorig:LeftHandThumb2
									{
										OFFSET 3.243317 -1.872528 1.872530
										CHANNELS 3 Xrotation Yrotation Zrotation
										JOINT mixamorig:LeftHandThumb3
										{
											OFFSET 2.647881 -1.528763 1.528754
											CHANNELS 6 Xposition Yposition Zposition Xrotation Yrotation Zrotation
											JOINT mixamorig:LeftHandThumb4
											{
												OFFSET 1.998924 -1.154083 1.154080
												CHANNELS 6 Xposition Yposition Zposition Xrotation Yrotation Zrotation
												End Site
												{
													OFFSET 1.884041 -1.149155 1.337651
												}
											}
										}
									}
								}
								JOINT mixamorig:LeftHandIndex1
								{
									OFFSET 9.109299 -0.518005 2.259900
									CHANNELS 6 Xposition Yposition Zposition Xrotation Yrotation Zrotation
									JOINT mixamorig:LeftHandIndex2
									{
										OFFSET 3.699997 0.000000 0.000000
										CHANNELS 3 Xrotation Yrotation Zrotation
										JOINT mixamorig:LeftHandIndex3
										{
											OFFSET 2.850006 0.000000 0.000000
											CHANNELS 3 Xrotation Yrotation Zrotation
											JOINT mixamorig:LeftHandIndex4
											{
												OFFSET 2.774895 0.000000 0.000000
												CHANNELS 3 Xrotation Yrotation Zrotation
												End Site
												{
													OFFSET 2.774902 0.000000 -0.000072
												}
											}
										}
									}
								}
								JOINT mixamorig:LeftHandMiddle1
								{
									OFFSET 9.533401 0.000000 0.000000
									CHANNELS 6 Xposition Yposition Zposition Xrotation Yrotation Zrotation
									JOINT mixamorig:LeftHandMiddle2
									{
										OFFSET 3.699997 0.000000 0.000000
										CHANNELS 3 Xrotation Yrotation Zrotation
										JOINT mixamorig:LeftHandMiddle3
										{
											OFFSET 2.949997 0.000000 0.000000
											CHANNELS 3 Xrotation Yrotation Zrotation
											JOINT mixamorig:LeftHandMiddle4
											{
												OFFSET 2.952896 0.000000 0.000000
												CHANNELS 3 Xrotation Yrotation Zrotation
												End Site
												{
													OFFSET 2.952904 0.000000 0.000165
												}
											}
										}
									}
								}
								JOINT mixamorig:LeftHandRing1
								{
									OFFSET 9.104500 -0.042999 -1.865101
									CHANNELS 6 Xposition Yposition Zposition Xrotation Yrotation Zrotation
									JOINT mixamorig:LeftHandRing2
									{
										OFFSET 3.149994 0.000000 0.000000
										CHANNELS 3 Xrotation Yrotation Zrotation
										JOINT mixamorig:LeftHandRing3
										{
											OFFSET 2.950005 0.000000 0.000000
											CHANNELS 3 Xrotation Yrotation Zrotation
											JOINT mixamorig:LeftHandRing4
											{
												OFFSET 2.644302 0.000000 0.000000
												CHANNELS 3 Xrotation Yrotation Zrotation
												End Site
												{
													OFFSET 2.644302 0.000000 0.000083
												}
											}
										}
									}
								}
								JOINT mixamorig:LeftHandPinky1
								{
									OFFSET 8.077805 -0.486893 -3.806302
									CHANNELS 6 Xposition Yposition Zposition Xrotation Yrotation Zrotation
									JOINT mixamorig:LeftHandPinky2
									{
										OFFSET 3.600006 0.000000 0.000000
										CHANNELS 3 Xrotation Yrotation Zrotation
										JOINT mixamorig:LeftHandPinky3
										{
											OFFSET 2.099998 0.000000 0.000000
											CHANNELS 3 Xrotation Yrotation Zrotation
											JOINT mixamorig:LeftHandPinky4
											{
												OFFSET 2.125496 0.000000 0.000000
												CHANNELS 3 Xrotation Yrotation Zrotation
												End Site
												{
													OFFSET 2.125504 0.000000 -0.001254
												}
											}
										}
									}
								}
							}
						}
					}
				}
			}
		}
	}
	JOINT mixamorig:RightUpLeg
	{
		OFFSET -8.207800 -6.751701 -1.599544
		CHANNELS 6 Xposition Yposition Zposition Xrotation Yrotation Zrotation
		JOINT mixamorig:RightLeg
		{
			OFFSET 0.000004 -44.370152 0.345934
			CHANNELS 3 Xrotation Yrotation Zrotation
			JOINT mixamorig:RightFoot
			{
				OFFSET 0.000004 -44.423664 -3.043535
				CHANNELS 3 Xrotation Yrotation Zrotation
				JOINT mixamorig:RightToeBase
				{
					OFFSET 0.000001 -8.728691 10.710592
					CHANNELS 3 Xrotation Yrotation Zrotation
					JOINT mixamorig:RightToe_End
					{
						OFFSET 0.000000 -0.000665 9.278101
						CHANNELS 3 Xrotation Yrotation Zrotation
						End Site
						{
							OFFSET 0.000000 -0.000665 9.278103
						}
					}
				}
			}
		}
	}
	JOINT mixamorig:LeftUpLeg
	{
		OFFSET 8.207800 -6.751701 -1.599544
		CHANNELS 6 Xposition Yposition Zposition Xrotation Yrotation Zrotation
		JOINT mixamorig:LeftLeg
		{
			OFFSET 0.000004 -44.370037 0.346940
			CHANNELS 3 Xrotation Yrotation Zrotation
			JOINT mixamorig:LeftFoot
			{
				OFFSET 0.000004 -44.423611 -3.044388
				CHANNELS 3 Xrotation Yrotation Zrotation
				JOINT mixamorig:LeftToeBase
				{
					OFFSET 0.000001 -8.728690 10.710592
					CHANNELS 3 Xrotation Yrotation Zrotation
					JOINT mixamorig:LeftToe_End
					{
						OFFSET 0.000000 -0.000680 9.278101
						CHANNELS 3 Xrotation Yrotation Zrotation
						End Site
						{
							OFFSET 0.000000 -0.000680 9.278101
						}
					}
				}
			}
		}
	}
}
MOTION
Frames: 4
Frame Time: 0.033333
1.891098 101.794571 -1.333974 -2.395226 -5.327947 -1.269710 0.000000 10.181540 0.131523 10.449582 3.105015 -2.562144 1.287658 0.463882 -0.136534 1.285363 0.467080 -0.136831 0.000000 16.740358 -2.049023 8.055009 -0.951943 1.103944 0.000001 9.617816 1.684983 27.633998 -3.597780 4.786168 -0.000001 22.037369 7.501061 -0.000001 0.000000 0.000000 -4.570000 11.014874 -2.160841 0.402379 0.220813 3.826506 4.945464 48.695707 64.226673 -0.000012 21.780456 0.000031 0.813561 6.004487 1.757163 -2.464792 -1.573996 2.681908 -2.228947 -8.395540 -11.304609 9.932169 -19.275516 -2.235878 -2.646270 -1.527813 1.527814 4.120856 -12.094972 -5.961045 -1.994579 -1.151581 1.151574 0.000003 -0.000001 0.000001 -9.108305 -0.517872 2.259803 0.064005 -0.943183 7.763845 0.362231 -2.219075 18.539903 0.064010 -0.943184 7.763839 0.000003 -0.000002 -0.000000 -9.532491 0.000018 -0.000001 0.064005 -0.943181 7.763845 0.362231 -2.219076 18.539901 0.064010 -0.943186 7.763839 0.000001 0.000002 0.000001 -9.103588 -0.043102 -1.865100 0.064005 -0.943184 7.763845 0.362231 -2.219075 18.539903 0.064008 -0.943185 7.763839 0.000000 -0.000000 -0.000001 -8.076694 -0.486701 -3.806301 0.064005 -0.943184 7.763847 0.362228 -2.219080 18.539901 0.064007 -0.943179 7.763838 -0.000002 -0.000002 -0.000002 4.570402 11.014674 -2.160815 0.485178 -1.309931 -4.393906 13.277873 -31.528030 -64.564815 -0.000015 -35.227134 -0.000016 7.668248 2.119894 10.183071 2.466107 -1.576191 2.681700 -2.364188 7.304393 7.735317 5.630665 21.324882 5.195582 2.647875 -1.528754 1.528751 2.211005 15.135139 7.249015 1.998914 -1.154065 1.154083 -0.000001 0.000001 -0.000002 9.109297 -0.518014 2.259899 0.112391 1.241604 -10.345956 0.182798 1.579256 -13.205884 0.136595 1.367526 -11.409122 -0.000006 -0.000001 -0.000000 9.533407 0.000002 -0.000001 0.026166 0.600968 -4.986269 0.246413 1.829170 -15.344884 0.136573 1.367533 -11.409128 -0.000003 -0.000001 0.000000 9.104495 -0.042997 -1.865099 0.061206 0.917950 -7.629524 0.215026 1.710732 -14.328714 0.136599 1.367538 -11.409128 -0.000004 0.000001 -0.000002 8.077811 -0.486893 -3.806301 0.352567 4.628986 -4.382086 0.257436 -2.183015 -16.219025 0.136591 1.367529 -11.409129 -0.000000 -0.000000 -0.000001 -8.207799 -6.751729 -1.599543 -11.129406 -5.878184 0.341784 22.822083 -7.886994 0.664614 -9.274477 -0.565748 -0.045729 -1.532581 0.000010 0.000000 0.000000 -0.000002 0.000000 8.207800 -6.751712 -1.599547 -10.544170 16.060403 2.006361 23.962218 1.608121 -0.714218 -11.765804 -2.679450 3.602201 -0.909470 -0.000004 0.000001 0.000000 0.000000 0.000000 
2.100699 101.772293 -1.392766 -2.308816 -5.465141 -1.276280 -0.000000 10.181555 0.131525 10.718511 2.859048 -2.635621 1.351385 0.430016 -0.072986 1.349963 0.434995 -0.073938 0.000000 16.740341 -2.049017 7.581408 -0.716906 1.102836 0.000002 9.617852 1.684966 26.433295 -2.288456 3.347929 0.000001 22.037369 7.501076 0.000000 0.000000 0.000000 -4.570002 11.014847 -2.160836 0.441699 0.830976 3.443763 2.525404 49.279251 65.336586 -0.000003 19.761081 0.000025 0.517977 5.714316 3.229046 -2.464807 -1.573993 2.681906 -2.227290 -8.410241 -11.316212 9.939331 -19.288669 -2.235957 -2.646262 -1.527815 1.527810 4.128279 -12.115430 -5.966281 -1.994599 -1.151583 1.151570 -0.000001 0.000003 0.000003 -9.108301 -0.517889 2.259801 0.070714 -0.991141 8.161391 0.398642 -2.324698 19.457937 0.070713 -0.991148 8.161383 0.000001 -0.000003 -0.000002 -9.532507 0.000016 -0.000001 0.070714 -0.991140 8.161394 0.398641 -2.324699 19.457932 0.070714 -0.991147 8.161387 -0.000003 -0.000002 -0.000001 -9.103603 -0.043107 -1.865103 0.070714 -0.991141 8.161393 0.398644 -2.324699 19.457937 0.070710 -0.991150 8.161385 0.000000 -0.000001 0.000000 -8.076713 -0.486694 -3.806303 0.070712 -0.991147 8.161396 0.398640 -2.324693 19.457930 0.070697 -0.991151 8.161386 0.000002 -0.000001 -0.000000 4.570400 11.014649 -2.160810 0.476163 -1.237168 -3.934290 14.469436 -31.038377 -63.864693 0.000012 -38.780769 0.000023 10.622204 2.569226 7.938942 2.466098 -1.576202 2.681699 -2.363281 7.307524 7.736345 5.630459 21.336710 5.200322 2.647877 -1.528764 1.528749 2.213082 15.147505 7.253758 1.998921 -1.154072 1.154082 0.000002 0.000002 0.000001 9.109282 -0.518017 2.259899 0.130458 1.336797 -11.149317 0.218513 1.724322 -14.444949 0.159641 1.477057 -12.337039 0.000001 -0.000000 -0.000001 9.533385 0.000001 -0.000001 0.029667 0.640010 -5.311023 0.299082 2.011148 -16.916437 0.159622 1.477048 -12.337062 -0.000002 -0.000002 -0.000002 9.104501 -0.043001 -1.865104 0.072855 1.001154 -8.325954 0.258204 1.871565 -15.709857 0.159632 1.477052 -12.337062 -0.000001 -0.000002 0.000000 8.077791 -0.486894 -3.806301 0.379396 4.666708 -4.713388 0.296306 -2.054217 -17.332266 0.159616 1.477043 -12.337062 -0.000002 0.000000 -0.000000 -8.207801 -6.751693 -1.599542 -11.302145 -5.776746 0.184990 22.945346 -7.183519 0.896574 -9.299670 -1.282641 -0.207986 -1.500283 -0.000007 -0.000000 -0.000000 -0.000002 -0.000000 8.207800 -6.751684 -1.599543 -10.507093 16.257677 1.533618 23.693894 0.743001 -0.114856 -11.658214 -1.438328 3.035219 -0.613216 0.000007 -0.000001 0.000000 0.000002 0.000000 
2.324385 101.786018 -1.435116 -2.205449 -5.574226 -1.235896 0.000000 10.181559 0.131523 11.054370 2.696481 -2.809184 1.241886 0.410671 -0.049045 1.241377 0.416052 -0.051071 -0.000000 16.740385 -2.049022 7.262394 -0.492149 1.106477 0.000000 9.617859 1.684977 25.409181 -1.156600 2.937788 0.000000 22.037369 7.501084 -0.000003 -0.000000 0.000000 -4.570001 11.014906 -2.160843 0.457337 1.088424 2.968403 0.447319 47.834373 66.958011 -0.000022 19.299442 0.000026 1.262386 4.296665 4.906259 -2.464784 -1.573990 2.681913 -2.223175 -8.447044 -11.345258 9.957226 -19.321555 -2.236137 -2.646266 -1.527806 1.527816 4.146872 -12.166630 -5.979357 -1.994586 -1.151583 1.151570 0.000006 -0.000000 -0.000002 -9.108278 -0.517877 2.259806 0.081844 -1.065869 8.781405 0.450605 -2.466744 20.701255 0.081844 -1.065869 8.781408 -0.000000 -0.000001 0.000002 -9.532493 0.000010 0.000001 0.081843 -1.065868 8.781406 0.450604 -2.466744 20.701258 0.081843 -1.065871 8.781408 0.000000 -0.000001 0.000001 -9.103598 -0.043098 -1.865101 0.081844 -1.065867 8.781405 0.450605 -2.466744 20.701257 0.081842 -1.065868 8.781409 -0.000003 0.000003 -0.000002 -8.076688 -0.486718 -3.806294 0.081836 -1.065864 8.781408 0.450612 -2.466748 20.701243 0.081842 -1.065875 8.781418 0.000001 0.000001 -0.000001 4.570400 11.014712 -2.160818 0.462254 -1.267748 -3.153940 15.497788 -29.544762 -63.818631 0.000008 -42.606460 -0.000006 13.941944 3.010491 5.833142 2.466105 -1.576209 2.681696 -2.361194 7.314724 7.738691 5.629930 21.363959 5.211256 2.647887 -1.528763 1.528756 2.217855 15.175992 7.264714 1.998937 -1.154080 1.154084 -0.000001 -0.000003 -0.000002 9.109298 -0.518014 2.259899 0.153078 1.446815 -12.080467 0.253533 1.854914 -15.566419 0.180773 1.570573 -13.132162 0.000002 0.000001 0.000002 9.533404 -0.000005 -0.000003 0.034423 0.689252 -5.720999 0.347677 2.164399 -18.250308 0.180767 1.570591 -13.132154 -0.000003 0.000001 -0.000003 9.104514 -0.043002 -1.865104 0.084593 1.078356 -8.973184 0.299982 2.014102 -16.942002 0.180779 1.570576 -13.132157 -0.000001 0.000001 0.000000 8.077803 -0.486893 -3.806304 0.413329 4.713724 -5.128373 0.337654 -1.926127 -18.446251 0.180779 1.570590 -13.132149 0.000002 -0.000000 -0.000002 -8.207799 -6.751700 -1.599542 -11.571444 -5.633096 -0.026416 23.122630 -6.363441 1.074658 -9.084354 -1.862458 -0.319547 -2.760429 0.000005 -0.000001 0.000000 0.000000 0.000000 8.207800 -6.751701 -1.599543 -10.636574 16.175464 1.228920 23.709933 0.738256 -0.029453 -11.630853 -1.371226 3.645745 -1.053096 -0.000002 0.000001 -0.000000 -0.000000 0.000000 
2.553559 101.881882 -1.437161 -2.092742 -5.579830 -1.183784 -0.000000 10.181568 0.131523 11.273379 2.663012 -3.093255 1.037751 0.410599 -0.021428 1.037449 0.416063 -0.024644 0.000001 16.740353 -2.049021 7.105039 -0.346056 1.089754 0.000000 9.617843 1.684969 24.747700 -0.503838 3.088022 0.000001 22.037384 7.501056 -0.000000 -0.000000 -0.000000 -4.569999 11.014883 -2.160840 0.440145 0.963560 2.401018 0.207368 45.938920 67.545544 -0.000020 20.861211 0.000025 2.952964 2.269782 6.828926 -2.464802 -1.573996 2.681911 -2.217255 -8.500445 -11.387423 9.983162 -19.369346 -2.236411 -2.646274 -1.527829 1.527819 4.173833 -12.240934 -5.998380 -1.994594 -1.151586 1.151576 0.000004 -0.000002 -0.000002 -9.108309 -0.517860 2.259806 0.097724 -1.164019 9.597565 0.518814 -2.639960 22.231600 0.097720 -1.164012 9.597593 -0.000000 0.000002 0.000002 -9.532504 0.000017 0.000001 0.097724 -1.164019 9.597566 0.518810 -2.639960 22.231602 0.097717 -1.164011 9.597594 -0.000001 0.000000 0.000001 -9.103594 -0.043106 -1.865099 0.097724 -1.164018 9.597565 0.518812 -2.639961 22.231600 0.097720 -1.164009 9.597593 -0.000001 0.000003 -0.000001 -8.076699 -0.486722 -3.806294 0.097729 -1.164016 9.597565 0.518797 -2.639967 22.231596 0.097723 -1.164010 9.597584 0.000002 0.000001 -0.000000 4.570401 11.014688 -2.160815 0.449314 -1.352117 -2.283212 16.855705 -27.499253 -63.744858 -0.000004 -48.071667 -0.000008 17.894314 4.535952 2.682563 2.466103 -1.576208 2.681702 -2.358482 7.324032 7.741724 5.629255 21.399181 5.225434 2.647882 -1.528767 1.528758 2.224012 15.212814 7.278835 1.998933 -1.154082 1.154086 0.000001 0.000006 -0.000001 9.109294 -0.518029 2.259901 0.198432 1.644386 -13.761472 0.305193 2.031165 -17.090110 0.208882 1.686487 -14.121122 -0.000000 0.000001 0.000001 9.533395 0.000003 0.000003 0.044628 0.784424 -6.514499 0.411939 2.350226 -19.882040 0.208881 1.686498 -14.121126 -0.000000 -0.000002 0.000001 9.104497 -0.043013 -1.865100 0.102667 1.187091 -9.886995 0.360200 2.202032 -18.579378 0.208890 1.686476 -14.121145 -0.000002 -0.000000 -0.000001 8.077797 -0.486895 -3.806296 0.479588 4.803459 -5.926897 0.406832 -1.728819 -20.176452 0.208878 1.686474 -14.121121 0.000003 0.000000 -0.000002 -8.207799 -6.751692 -1.599542 -11.908834 -5.557503 -0.221890 23.336043 -4.941422 1.211683 -8.369064 -2.992124 -0.498410 -3.721710 -0.000003 -0.000001 0.000000 -0.000001 0.000000 8.207799 -6.751684 -1.599543 -10.418033 15.084205 1.057101 23.089904 1.761602 -0.635507 -11.274095 -1.549358 3.836644 -1.230246 -0.000003 -0.000000 0.000000 0.000001 0.000000 
